<svg width="60" height="60" fill="none" xmlns="http://www.w3.org/2000/svg"><path fill-rule="evenodd" clip-rule="evenodd" d="M28.203 34.632c.442.191.947.287 1.516.287.566 0 1.068-.096 1.504-.287.439-.191.783-.453 1.033-.785.25-.334.375-.713.375-1.136 0-.33-.074-.632-.222-.907a2.02 2.02 0 00-.589-.69 1.846 1.846 0 00-.827-.355v-.054a1.65 1.65 0 00.969-.616c.252-.324.378-.698.378-1.121 0-.403-.114-.763-.344-1.08a2.298 2.298 0 00-.934-.746 3.136 3.136 0 00-1.343-.275c-.508 0-.96.092-1.355.275-.395.181-.707.43-.934.747a1.78 1.78 0 00-.336 1.079c-.003.423.12.797.367 1.121.25.322.577.527.98.616v.054a1.9 1.9 0 00-.834.356 2.02 2.02 0 00-.59.689 1.881 1.881 0 00-.214.907c-.003.423.12.802.367 1.136.25.332.595.593 1.033.785zm2.281-.957c-.217.1-.472.15-.765.15-.296 0-.554-.052-.773-.154a1.203 1.203 0 01-.505-.425 1.114 1.114 0 01-.176-.635c-.003-.25.058-.47.183-.662a1.31 1.31 0 01.52-.455c.22-.11.47-.165.751-.165.278 0 .526.055.742.165.22.11.392.261.517.455.128.191.193.412.195.662a1.16 1.16 0 01-.183.635c-.12.184-.289.327-.506.43zm-.13-3.567a1.342 1.342 0 01-.635.146c-.242 0-.458-.049-.647-.146a1.145 1.145 0 01-.44-.405 1.116 1.116 0 01-.153-.601 1.09 1.09 0 01.15-.59c.104-.17.25-.302.436-.394.188-.094.406-.141.654-.141.242 0 .457.047.643.141.186.092.332.224.436.394.105.169.158.365.161.59a1.108 1.108 0 01-.605 1.006z" fill="#000"/><path fill-rule="evenodd" clip-rule="evenodd" d="M30.993 18.194a2.875 2.875 0 00-3.851 1.297l-.002.002-2.432 4.852-5.39.77-.002.001a2.875 2.875 0 00-1.584 4.927l3.872 3.71-.92 5.268v.002a2.875 2.875 0 004.16 3.05h.002l4.87-2.516 4.872 2.517h.001a2.875 2.875 0 004.16-3.05v-.002l-.92-5.269 3.871-3.71a2.875 2.875 0 00-1.584-4.928l-5.391-.77-2.433-4.852v-.002a2.876 2.876 0 00-1.299-1.297zm-2.06 2.187a.875.875 0 011.567 0l.003.005 2.668 5.323a1 1 0 00.753.542l5.911.845h.003a.875.875 0 01.482 1.5l-.002.002-4.257 4.08a1 1 0 00-.293.894l1.01 5.797.001.003a.875.875 0 01-1.266.929l-5.337-2.758a1 1 0 00-.918 0l-5.334 2.755-.004.002a.875.875 0 01-1.266-.93v-.002l1.011-5.796a1 1 0 00-.293-.894l-4.257-4.08-.002-.002a.875.875 0 01.482-1.5h.003l5.911-.845a1 1 0 00.753-.542l2.668-5.323.003-.005z" fill="#000"/><path d="M41.068 30.65l.79.756a1 1 0 01.293.894l-.662 3.793v.003a.227.227 0 00.328.241l.004-.002 3.49-1.803a1 1 0 01.919 0l3.493 1.806a.227.227 0 00.329-.241v-.003L49.39 32.3a1 1 0 01.293-.894l2.788-2.671a.227.227 0 00-.125-.39h-.003l-3.868-.552a1 1 0 01-.753-.542l-1.746-3.484-.002-.004a.227.227 0 00-.407 0l-.002.004-1.746 3.484a1 1 0 01-.753.541l-.476.069a2.874 2.874 0 00-.815-1.904l.49-.07 1.51-3.012.001-.002a2.227 2.227 0 013.988-.001l.002.003 1.51 3.012 3.347.478h.002a2.227 2.227 0 011.226 3.817l-2.4 2.3.57 3.265v.003a2.227 2.227 0 01-3.221 2.362l-.002-.001-3.028-1.565-3.027 1.564-.002.001a2.227 2.227 0 01-3.222-2.363v-.002l.57-3.264-.466-.447 1.445-1.386z" fill="url(#paint0_linear_755_907)"/><path d="M18.648 30.921l1.446 1.385-.183.176.57 3.265v.002a2.227 2.227 0 01-3.222 2.363l-.002-.001-3.028-1.565-3.027 1.564-.002.001a2.227 2.227 0 01-3.221-2.363v-.002l.57-3.264-2.4-2.3a2.227 2.227 0 011.226-3.817h.002l3.347-.478 1.511-3.015a2.227 2.227 0 013.989 0v.003l1.509 3.007a2.863 2.863 0 00-.885 1.894 1 1 0 01-.667-.525l-1.748-3.488a.227.227 0 00-.407 0l-.002.004-1.746 3.484a1 1 0 01-.753.541l-3.87.554a.227.227 0 00-.126.389l.002.002 2.786 2.67a1 1 0 01.293.893l-.661 3.793v.003a.227.227 0 00.328.241l.003-.002 3.49-1.803a1 1 0 01.919 0l3.494 1.806a.227.227 0 00.328-.241v-.003l-.662-3.794a1 1 0 01.293-.894l.506-.485z" fill="url(#paint1_linear_755_907)"/><defs><linearGradient id="paint0_linear_755_907" x1="55.441" y1="45.31" x2="39.395" y2="45.31" gradientUnits="userSpaceOnUse"><stop stop-color="#FB6E1E"/><stop offset="1" stop-color="#FB1E46"/></linearGradient><linearGradient id="paint1_linear_755_907" x1="21.415" y1="45.31" x2="5.369" y2="45.31" gradientUnits="userSpaceOnUse"><stop stop-color="#FB6E1E"/><stop offset="1" stop-color="#FB1E46"/></linearGradient></defs></svg>