<svg width="60" height="60" fill="none" xmlns="http://www.w3.org/2000/svg"><path d="M33.952 34.742a1 1 0 011-1h3.125a1 1 0 110 2h-3.125a1 1 0 01-1-1zm-11.5-1a1 1 0 100 2h3.125a1 1 0 100-2h-3.125z" fill="#000"/><path fill-rule="evenodd" clip-rule="evenodd" d="M25.28 21.242a4.125 4.125 0 00-4.016 3.186l-.928 3.971-2.216-.842a1 1 0 00-.71 1.87l1.073.408a4.74 4.74 0 00-1.718 3.657v7.187a2.563 2.563 0 002.562 2.563h2.813a2.876 2.876 0 002.875-2.875v-.25h10.5v.25a2.876 2.876 0 002.875 2.875h2.812a2.563 2.563 0 002.563-2.563v-7.187a4.74 4.74 0 00-1.717-3.656l1.073-.41a1 1 0 00-.713-1.868l-2.18.832-.809-3.868a4.128 4.128 0 00-4.039-3.28h-10.1zm12.978 7.5l-.796-3.81a2.127 2.127 0 00-2.082-1.69h-10.1c-.986 0-1.844.68-2.068 1.64l-.902 3.86h15.948zm-19.493 4.75a2.75 2.75 0 012.75-2.75h17.5a2.75 2.75 0 012.75 2.75v7.187c0 .31-.252.563-.563.563H38.39a.876.876 0 01-.875-.875v-1.25a1 1 0 00-1-1h-12.5a1 1 0 00-1 1v1.25a.876.876 0 01-.875.875h-2.813a.563.563 0 01-.562-.563v-7.187z" fill="#000"/><path fill-rule="evenodd" clip-rule="evenodd" d="M6.456 21.142a3.37 3.37 0 00-.096.334l-.705 3.018-1.6-.608a1 1 0 00-.71 1.87l.584.222a4.035 4.035 0 00-1.23 2.906v5.841a2.27 2.27 0 002.27 2.27h2.286a2.524 2.524 0 002.524-2.524v-.016h6.986v-.963c0-.356.04-.703.113-1.037h-8.1a1 1 0 00-1 1v1.016a.524.524 0 01-.523.524H4.969a.27.27 0 01-.27-.27v-5.84c0-1.132.917-2.048 2.048-2.048H20.7l.563-2.409c.11-.47.297-.904.546-1.292l-.33-1.58a3.542 3.542 0 00-3.466-2.814H9.806a3.54 3.54 0 00-3.35 2.4zm1.852.789l-.68 2.906h12.494l-.6-2.87a1.54 1.54 0 00-1.508-1.225H9.806a1.54 1.54 0 00-1.498 1.189z" fill="url(#paint0_linear_755_906)"/><path d="M17.009 29.147a1 1 0 00.53 1.745c.26-.398.58-.754.944-1.057l-1.073-.409a.996.996 0 01-.401-.28z" fill="url(#paint1_linear_755_906)"/><path d="M7.51 28.9a1 1 0 100 2h2.539a1 1 0 100-2h-2.54z" fill="url(#paint2_linear_755_906)"/><path fill-rule="evenodd" clip-rule="evenodd" d="M43.765 34.455h6.987v.016a2.524 2.524 0 002.524 2.524h2.286a2.27 2.27 0 002.27-2.27v-5.84c0-1.14-.472-2.17-1.23-2.906l.586-.224a1 1 0 10-.713-1.868l-1.567.598-.612-2.928a3.542 3.542 0 00-3.466-2.815h-8.208a3.54 3.54 0 00-3.446 2.734l-.371 1.59c.29.43.502.922.614 1.456l.484 2.315h13.881c1.131 0 2.048.916 2.048 2.047v5.841a.27.27 0 01-.27.27h-2.286a.524.524 0 01-.524-.524v-1.016a1 1 0 00-1-1h-8.1c.074.334.113.68.113 1.037v.963zm-2.641-12.524l-.68 2.906h12.494l-.6-2.87a1.54 1.54 0 00-1.508-1.225h-8.208a1.54 1.54 0 00-1.498 1.189z" fill="url(#paint3_linear_755_906)"/><path d="M42.992 30.892a1 1 0 00.53-1.746.996.996 0 01-.4.28l-1.074.41c.365.303.683.659.944 1.056z" fill="url(#paint4_linear_755_906)"/><path d="M50.483 28.9a1 1 0 100 2h2.54a1 1 0 100-2h-2.54z" fill="url(#paint5_linear_755_906)"/><defs><linearGradient id="paint0_linear_755_906" x1="22.952" y1="44.574" x2="2.585" y2="44.574" gradientUnits="userSpaceOnUse"><stop stop-color="#FB6E1E"/><stop offset="1" stop-color="#FB1E46"/></linearGradient><linearGradient id="paint1_linear_755_906" x1="22.952" y1="44.574" x2="2.585" y2="44.574" gradientUnits="userSpaceOnUse"><stop stop-color="#FB6E1E"/><stop offset="1" stop-color="#FB1E46"/></linearGradient><linearGradient id="paint2_linear_755_906" x1="22.952" y1="44.574" x2="2.585" y2="44.574" gradientUnits="userSpaceOnUse"><stop stop-color="#FB6E1E"/><stop offset="1" stop-color="#FB1E46"/></linearGradient><linearGradient id="paint3_linear_755_906" x1="58.969" y1="44.574" x2="38.691" y2="44.574" gradientUnits="userSpaceOnUse"><stop stop-color="#FB6E1E"/><stop offset="1" stop-color="#FB1E46"/></linearGradient><linearGradient id="paint4_linear_755_906" x1="58.969" y1="44.574" x2="38.691" y2="44.574" gradientUnits="userSpaceOnUse"><stop stop-color="#FB6E1E"/><stop offset="1" stop-color="#FB1E46"/></linearGradient><linearGradient id="paint5_linear_755_906" x1="58.969" y1="44.574" x2="38.691" y2="44.574" gradientUnits="userSpaceOnUse"><stop stop-color="#FB6E1E"/><stop offset="1" stop-color="#FB1E46"/></linearGradient></defs></svg>