<svg width="105" height="22" fill="none" xmlns="http://www.w3.org/2000/svg"><path d="M0 4.33h2.433v17.017H0V4.33zm40.976 1.519a5.186 5.186 0 011.824 4.213 5.161 5.161 0 01-1.824 4.194 7.632 7.632 0 01-5.034 1.519h-4.859v5.57H29.84V4.33h6.081a7.633 7.633 0 015.055 1.519zm-.872 7.617a4.174 4.174 0 001.432-3.377 4.205 4.205 0 00-1.432-3.41 6.32 6.32 0 00-4.162-1.208h-4.859v9.19h4.865a6.362 6.362 0 004.156-1.195zm7.797 6.118c-1.19-1.25-1.79-3.072-1.79-5.47V4.33h1.243v9.744c0 2.093.477 3.669 1.432 4.727a5.406 5.406 0 004.163 1.56 5.346 5.346 0 004.135-1.56c.96-1.033 1.433-2.6 1.433-4.693V4.33h1.243v9.798c0 2.395-.6 4.218-1.797 5.47a6.685 6.685 0 01-5.041 1.87 6.634 6.634 0 01-5.021-1.884zM64.795 4.329h1.244v15.929h9.804v1.12H64.795V4.329zM80.018 20.82a6.826 6.826 0 01-2.642-1.662l.56-.925a6.582 6.582 0 002.42 1.546 8.79 8.79 0 003.203.595 6.085 6.085 0 003.669-.925 2.857 2.857 0 001.243-2.404 2.503 2.503 0 00-.675-1.823c-.451-.464-1-.82-1.609-1.04a23.263 23.263 0 00-2.628-.757 25.3 25.3 0 01-3.007-.898 4.804 4.804 0 01-1.92-1.35 3.59 3.59 0 01-.79-2.444 4.13 4.13 0 01.676-2.27 4.473 4.473 0 012.027-1.64 8.202 8.202 0 013.379-.608c.938 0 1.872.138 2.77.412a8.11 8.11 0 012.358 1.12l-.533 1.007a8.07 8.07 0 00-2.25-1.067 8.479 8.479 0 00-2.42-.364 5.78 5.78 0 00-3.58.945 2.971 2.971 0 00-1.21 2.438 2.503 2.503 0 00.675 1.823 4.32 4.32 0 001.629 1.046c.868.307 1.752.566 2.648.777a23.97 23.97 0 012.994.898 4.973 4.973 0 011.912 1.35 3.47 3.47 0 01.79 2.397 4.049 4.049 0 01-.675 2.263 4.594 4.594 0 01-2.06 1.627 8.443 8.443 0 01-3.38.608 9.877 9.877 0 01-3.574-.676zM105 20.26v1.12H93.249V4.33h11.386v1.114H94.499v6.712h9.075v1.094h-9.088v7.01H105zM25.057 4.329h-1.994l-7.007 11.958-7.034-11.85-2.061 3.91v12.998h2.338V9.022l6.149 10.257h1.122l6.155-10.331.02 12.397h2.339l-.027-17.016zM5.695 5.464H4.621L5.554 0h3.013L5.695 5.464z" fill="#D8D8D8"/></svg>