<svg width="60" height="60" fill="none" xmlns="http://www.w3.org/2000/svg"><path d="M21.234 27.995a1 1 0 100 2h10.808a1 1 0 100-2H21.234zm-1 5.053a1 1 0 011-1h10.808a1 1 0 110 2H21.234a1 1 0 01-1-1zm1-9.106a1 1 0 100 2h4.053a1 1 0 000-2h-4.053zm5.756 14.51a1 1 0 011-1h4.052a1 1 0 110 2H27.99a1 1 0 01-1-1zm-2.385-.402a1 1 0 10-1.337-1.488l-1.137 1.02-.228-.205a1 1 0 10-1.337 1.488l.897.806a1 1 0 001.336 0l1.806-1.621z" fill="#000"/><path fill-rule="evenodd" clip-rule="evenodd" d="M18.532 18.538a3.702 3.702 0 00-3.702 3.702v18.914a3.702 3.702 0 003.702 3.702h16.212a3.702 3.702 0 003.702-3.702V22.24a3.702 3.702 0 00-3.702-3.702H18.532zm-1.203 2.498a1.702 1.702 0 011.203-.498h16.212a1.702 1.702 0 011.702 1.702v18.914a1.702 1.702 0 01-1.702 1.702H18.532a1.702 1.702 0 01-1.702-1.702V22.24c0-.451.18-.884.499-1.204z" fill="#000"/><path d="M7.791 17.483a5.7 5.7 0 019.106 1.435 3.702 3.702 0 011.635-.38h.393a7.7 7.7 0 10-4.095 10.065v-2.248a5.7 5.7 0 01-7.039-8.872z" fill="url(#paint0_linear_755_905)"/><path d="M12.661 19.255a1 1 0 10-2 0v2.617a1 1 0 00.48.854l2.057 1.255a1 1 0 001.041-1.708l-1.578-.962v-2.056z" fill="url(#paint1_linear_755_905)"/><path d="M38.263 42.304a3.71 3.71 0 00.183-1.15v-.85h2.384a1 1 0 110 2h-2.567z" fill="url(#paint2_linear_755_905)"/><path d="M35.48 44.782v1.347c0 .149.122.27.27.27h2.286a.524.524 0 00.523-.524V44.86a1 1 0 011-1h10.159a1 1 0 011 1v1.016c0 .29.234.524.523.524h2.286a.27.27 0 00.27-.27v-5.84a2.047 2.047 0 00-2.048-2.048H38.446v-2h12.457l-.6-2.87a1.541 1.541 0 00-1.508-1.225h-8.208a1.54 1.54 0 00-1.498 1.189l-.643 2.75v-5.218a3.533 3.533 0 012.141-.72h8.208a3.54 3.54 0 013.465 2.813l.613 2.93 1.567-.6a1 1 0 01.714 1.87l-.587.223a4.035 4.035 0 011.23 2.905v5.841a2.27 2.27 0 01-2.27 2.27H51.24a2.524 2.524 0 01-2.523-2.524v-.016h-8.159v.016a2.524 2.524 0 01-2.523 2.524H35.75a2.27 2.27 0 01-2.27-2.27v-1.273h1.264c.25 0 .496-.025.736-.074z" fill="url(#paint3_linear_755_905)"/><path d="M48.448 40.304a1 1 0 100 2h2.54a1 1 0 100-2h-2.54z" fill="url(#paint4_linear_755_905)"/><defs><linearGradient id="paint0_linear_755_905" x1="19.809" y1="35.607" x2="4.034" y2="35.607" gradientUnits="userSpaceOnUse"><stop stop-color="#FB6E1E"/><stop offset="1" stop-color="#FB1E46"/></linearGradient><linearGradient id="paint1_linear_755_905" x1="19.809" y1="35.607" x2="4.034" y2="35.607" gradientUnits="userSpaceOnUse"><stop stop-color="#FB6E1E"/><stop offset="1" stop-color="#FB1E46"/></linearGradient><linearGradient id="paint2_linear_755_905" x1="57.131" y1="55.979" x2="33.347" y2="55.979" gradientUnits="userSpaceOnUse"><stop stop-color="#FB6E1E"/><stop offset="1" stop-color="#FB1E46"/></linearGradient><linearGradient id="paint3_linear_755_905" x1="57.131" y1="55.979" x2="33.347" y2="55.979" gradientUnits="userSpaceOnUse"><stop stop-color="#FB6E1E"/><stop offset="1" stop-color="#FB1E46"/></linearGradient><linearGradient id="paint4_linear_755_905" x1="57.131" y1="55.979" x2="33.347" y2="55.979" gradientUnits="userSpaceOnUse"><stop stop-color="#FB6E1E"/><stop offset="1" stop-color="#FB1E46"/></linearGradient></defs></svg>